<svg width="1920" height="1080" viewBox="0 0 1920 1080" fill="none" xmlns="http://www.w3.org/2000/svg">
<g clip-path="url(#clip0_373_587)">
<rect width="1920" height="1080" fill="#F4F4F4"/>
<path d="M1246.68 817.837C1252.94 812.364 1253.24 802.571 1247.35 795.964C1241.45 789.357 1231.6 788.437 1225.34 793.909C1219.08 799.382 1218.78 809.175 1224.67 815.782C1230.57 822.389 1240.42 823.309 1246.68 817.837Z" fill="#879DEE"/>
<path d="M1368.38 677.387C1371.56 674.61 1371.71 669.641 1368.72 666.288C1365.73 662.935 1360.73 662.468 1357.55 665.245C1354.37 668.022 1354.22 672.992 1357.21 676.344C1360.2 679.697 1365.2 680.164 1368.38 677.387Z" fill="#879DEE"/>
<path d="M970.192 915.969C972.918 913.587 973.048 909.323 970.482 906.446C967.916 903.569 963.625 903.169 960.899 905.552C958.173 907.934 958.043 912.198 960.61 915.075C963.176 917.951 967.466 918.352 970.192 915.969Z" fill="#879DEE"/>
<path d="M662.08 828.339C663.567 827.04 663.638 824.714 662.238 823.145C660.838 821.576 658.498 821.358 657.012 822.657C655.525 823.957 655.454 826.282 656.854 827.851C658.253 829.42 660.593 829.639 662.08 828.339Z" fill="#879DEE"/>
<path d="M1248.58 267.169C1251.76 264.392 1251.91 259.423 1248.92 256.07C1245.93 252.718 1240.93 252.251 1237.75 255.028C1234.58 257.805 1234.42 262.774 1237.42 266.127C1240.41 269.48 1245.41 269.946 1248.58 267.169Z" fill="#879DEE"/>
<path d="M1793.02 254.64C1796.2 251.863 1796.35 246.894 1793.36 243.541C1790.37 240.189 1785.36 239.722 1782.19 242.499C1779.01 245.276 1778.86 250.245 1781.85 253.598C1784.84 256.951 1789.84 257.417 1793.02 254.64Z" fill="#879DEE"/>
<path d="M1693.69 761.004C1699.95 755.532 1700.25 745.739 1694.35 739.132C1688.46 732.525 1678.6 731.605 1672.34 737.077C1666.08 742.55 1665.78 752.342 1671.68 758.95C1677.57 765.557 1687.42 766.477 1693.69 761.004Z" fill="#879DEE"/>
<path d="M1483.96 755.768C1483.11 791.091 1486.86 866.697 1508.77 886.538" stroke="#1F2A3B" stroke-width="1.28837"/>
<path d="M1583.38 755.768C1584.24 791.091 1580.48 866.697 1558.58 886.538" stroke="#1F2A3B" stroke-width="1.28837"/>
<path fill-rule="evenodd" clip-rule="evenodd" d="M1533.45 796.758L1532.82 797.878C1501.42 780.079 1467.45 739.75 1441.34 693.878C1415.23 648.002 1396.89 596.433 1396.89 556.071C1396.89 475.375 1449.97 410.485 1533.46 410.485V411.773C1492.12 411.773 1463.17 428.456 1444.53 455.106C1425.87 481.787 1417.5 518.52 1417.5 558.647C1417.5 598.729 1430.92 649.444 1452.15 694.574C1473.39 739.721 1502.38 779.141 1533.45 796.758Z" fill="#B3C0F1"/>
<path fill-rule="evenodd" clip-rule="evenodd" d="M1534.74 796.996C1503.35 779.196 1496.42 739.341 1491.26 690.383C1486.11 634.339 1485.79 608.25 1480.63 568.954C1480.63 488.258 1458.02 410.485 1541.51 410.485C1483.53 410.485 1467.69 436.023 1457.76 456.544C1443.27 486.499 1436.18 531.082 1436.18 571.209C1436.18 611.29 1449.1 652.339 1470.33 697.469C1496.2 747.072 1503.68 779.379 1534.74 796.996Z" fill="#9DAFEF"/>
<path fill-rule="evenodd" clip-rule="evenodd" d="M1531.85 796.996C1563.24 779.196 1570.17 739.341 1575.33 690.383C1580.48 634.339 1580.8 608.25 1585.96 568.954C1585.96 488.258 1608.57 410.485 1525.08 410.485C1583.06 410.485 1598.9 436.023 1608.83 456.544C1623.32 486.499 1630.41 531.082 1630.41 571.209C1630.41 611.29 1617.5 652.339 1596.26 697.469C1570.39 747.072 1562.91 779.379 1531.85 796.996Z" fill="#9DAFEF"/>
<path fill-rule="evenodd" clip-rule="evenodd" d="M1533.46 796.758L1534.1 797.878C1565.49 780.079 1599.46 739.75 1625.57 693.878C1651.69 648.002 1670.02 596.433 1670.02 556.071C1670.02 475.375 1616.95 410.485 1533.46 410.485V411.773C1574.79 411.773 1603.74 428.456 1622.38 455.106C1641.04 481.787 1649.41 518.52 1649.41 558.647C1649.41 598.729 1636 649.444 1614.77 694.574C1593.53 739.721 1564.53 779.141 1533.46 796.758Z" fill="#B3C0F1"/>
<path d="M1533.46 410.485C1514.13 417.249 1486.5 433.675 1533.13 796.996C1554.5 670.306 1584.48 415.638 1533.46 410.485Z" fill="#879DEE"/>
<path d="M1467.75 892.335H1581.77V934.207C1581.77 957.333 1563.02 976.079 1539.9 976.079H1509.62C1486.5 976.079 1467.75 957.333 1467.75 934.207V892.335Z" fill="#879DEE"/>
<rect x="1456.8" y="880.74" width="135.923" height="12.8837" fill="#B3C0F1"/>
<path d="M1682.91 555.426C1682.91 595.447 1662.21 646.292 1633.04 691.965C1603.97 737.487 1566.58 777.733 1533.13 796.899C1502.08 779.163 1464.7 738.928 1435.03 693.049C1405.26 647.007 1383.36 595.44 1383.36 555.426C1383.36 475.397 1450.4 410.485 1533.13 410.485C1615.87 410.485 1682.91 475.397 1682.91 555.426Z" stroke="#1F2A3B" stroke-width="1.28837"/>
<path d="M1481.92 905.863H1594.65V947.091C1594.65 969.861 1576.2 988.319 1553.43 988.319H1523.15C1500.38 988.319 1481.92 969.86 1481.92 947.091V905.863Z" stroke="#1F2A3B" stroke-width="1.28837"/>
<rect x="1470.97" y="894.268" width="134.635" height="11.5953" stroke="#1F2A3B" stroke-width="1.28837"/>
<path d="M1515.31 844.73C1518.88 840.652 1550.04 838.091 1553.71 840.924C1560.77 846.365 1558.34 873.818 1557.44 880.652C1557.39 880.989 1508.72 880.652 1505.23 880.734C1504.13 879.103 1511.12 849.52 1515.31 844.73Z" fill="#1F2A3B"/>
<path d="M1542.25 836.042L1542.34 841.772C1542.34 843.191 1534.47 843.273 1534.48 841.772L1534.48 832" stroke="#1F2A3B" stroke-width="0.576719"/>
<path d="M1542.11 835.756C1547.59 835.756 1552.03 831.354 1552.03 825.923C1552.03 820.493 1547.59 816.09 1542.11 816.09C1536.63 816.09 1532.19 820.493 1532.19 825.923C1532.19 831.354 1536.63 835.756 1542.11 835.756Z" stroke="#1F2A3B" stroke-width="0.576719"/>
<path d="M1553.23 828.989C1553.28 828.466 1552.57 827.964 1551.63 827.868C1550.69 827.772 1549.89 828.117 1549.83 828.64C1549.78 829.163 1550.49 829.664 1551.43 829.761C1552.37 829.857 1553.17 829.511 1553.23 828.989Z" fill="#879DEE"/>
<path d="M1542.57 828.207C1542.63 827.685 1541.91 827.183 1540.97 827.086C1540.04 826.99 1539.23 827.336 1539.18 827.858C1539.12 828.381 1539.84 828.883 1540.77 828.979C1541.71 829.076 1542.52 828.73 1542.57 828.207Z" fill="#879DEE"/>
<path d="M1547.58 826.897C1547.85 827.375 1549.28 829.425 1547.49 830.012" stroke="#1F2A3B" stroke-width="0.576719" stroke-linecap="round"/>
<path d="M1543.84 831.855C1543.33 831.79 1542.61 831.094 1542.25 830.49" stroke="#1F2A3B" stroke-width="0.576719" stroke-linecap="round"/>
<path d="M1535.38 826.63C1535.38 829.599 1532.09 831.523 1530.96 831.523C1530.6 831.566 1530.25 831.454 1529.98 831.216C1529.72 830.978 1529.57 830.638 1529.57 830.284C1529.57 829.039 1530.31 827.978 1531.86 826.63C1531.58 826.168 1529.57 823.732 1529.57 820.263C1529.57 816.626 1531.83 813.576 1533.34 813.576C1534.66 813.663 1535.76 814.626 1536.01 815.919C1536.01 810.835 1541.5 807.22 1544.79 807.22C1547.84 807.22 1548.36 808.536 1548.36 809.601C1548.36 811.945 1546.5 814.451 1545.8 815.065C1547.51 813.82 1550.19 812.564 1552.47 812.564C1553.92 812.564 1555.76 812.972 1555.76 814.946C1555.76 818.572 1552.26 820.789 1551.11 821.377C1550.68 820.532 1550.12 819.79 1549.47 819.098C1549.68 819.783 1548.91 820.872 1547.29 821.15C1546.36 821.302 1535.38 819.834 1535.38 826.63Z" fill="#1F2A3B"/>
<line x1="1556.65" y1="988.319" x2="1556.65" y2="1030.84" stroke="#1F2A3B" stroke-width="1.28837" stroke-linecap="round"/>
<path d="M217.668 901C228.208 901 237.118 907.988 240.03 917.589C245.638 915.446 251.741 914.271 258.123 914.271C285.666 914.271 307.994 936.16 307.994 963.162C307.994 964.671 307.924 966.164 307.788 967.638C312.358 968.744 316.815 970.135 321.138 971.791C332.405 961.656 347.371 955.479 363.793 955.479C394.234 955.479 419.671 976.703 425.838 1005.02C447.947 989.65 474.902 980.623 503.989 980.623C579.106 980.623 640 1040.82 640 1115.07C640 1189.33 579.106 1249.53 503.989 1249.53C435.549 1249.53 378.915 1199.56 369.388 1134.51C349.656 1161.05 317.789 1178.28 281.838 1178.28C259.654 1178.28 239.026 1171.72 221.844 1160.46C206.044 1171.68 186.656 1178.28 165.705 1178.28C130.372 1178.28 99.4858 1159.5 82.7441 1131.49C68.1184 1140.35 50.9057 1145.46 32.4843 1145.46C23.0312 1145.46 13.8963 1144.11 5.26547 1141.61C-3.94737 1202.68 -57.2657 1249.53 -121.661 1249.53C-192.541 1249.53 -250 1192.77 -250 1122.76C-250 1052.75 -192.541 995.989 -121.661 995.989C-97.7799 995.989 -75.4218 1002.43 -56.2718 1013.65C-41.7019 979.477 -7.44865 955.479 32.4843 955.479C54.1652 955.479 74.1718 962.553 90.2636 974.49C103.227 958.23 123.298 947.796 145.827 947.796C146.291 947.796 146.754 947.801 147.216 947.809C145.644 943.915 144.781 939.668 144.781 935.224C144.781 916.323 160.394 901 179.655 901C187.657 901 195.029 903.644 200.913 908.091C205.158 903.717 211.096 901 217.668 901Z" fill="#AFBDF0"/>
<path d="M1723.67 193.526C1734.21 193.526 1743.12 186.539 1746.03 176.937C1751.64 179.08 1757.74 180.256 1764.12 180.256C1791.67 180.256 1813.99 158.366 1813.99 131.364C1813.99 129.855 1813.92 128.362 1813.79 126.888C1818.36 125.783 1822.82 124.392 1827.14 122.735C1838.4 132.87 1853.37 139.047 1869.79 139.047C1900.23 139.047 1925.67 117.824 1931.84 89.5021C1953.95 104.877 1980.9 113.903 2009.99 113.903C2085.11 113.903 2146 53.707 2146 -20.5486C2146 -94.8042 2085.11 -155 2009.99 -155C1941.55 -155 1884.92 -105.029 1875.39 -39.9829C1855.66 -66.5237 1823.79 -83.7583 1787.84 -83.7583C1765.65 -83.7583 1745.03 -77.1964 1727.84 -65.9352C1712.04 -77.1526 1692.66 -83.7583 1671.71 -83.7583C1636.37 -83.7583 1605.49 -64.9706 1588.74 -36.9659C1574.12 -45.8243 1556.91 -50.9312 1538.48 -50.9312C1529.03 -50.9312 1519.9 -49.5863 1511.27 -47.08C1502.05 -108.153 1448.73 -155 1384.34 -155C1313.46 -155 1256 -98.244 1256 -28.2315C1256 41.7809 1313.46 98.5371 1384.34 98.5371C1408.22 98.5371 1430.58 92.094 1449.73 80.8716C1464.3 115.049 1498.55 139.047 1538.48 139.047C1560.17 139.047 1580.17 131.973 1596.26 120.036C1609.23 136.296 1629.3 146.73 1651.83 146.73C1652.29 146.73 1652.75 146.726 1653.22 146.717C1651.64 150.612 1650.78 154.858 1650.78 159.302C1650.78 178.204 1666.39 193.526 1685.66 193.526C1693.66 193.526 1701.03 190.882 1706.91 186.435C1711.16 190.809 1717.1 193.526 1723.67 193.526Z" fill="#AFBDF0"/>
</g>
<defs>
<clipPath id="clip0_373_587">
<rect width="1920" height="1080" fill="white"/>
</clipPath>
</defs>
</svg>
