<svg width="25" height="25" viewBox="0 0 25 25" fill="none" xmlns="http://www.w3.org/2000/svg">
<g id="Frame" clip-path="url(#clip0_647_3966)">
<path id="Vector" d="M9.89892 22.6128C5.46228 21.5901 2.1543 17.6155 2.1543 12.8682C2.1543 7.34531 6.63145 2.86816 12.1543 2.86816C17.6771 2.86816 22.1543 7.34531 22.1543 12.8682C22.1543 17.6155 18.8463 21.5901 14.4097 22.6128L12.1543 24.8682L9.89892 22.6128ZM7.16603 19.1249C8.07877 19.8542 9.15863 20.3897 10.3482 20.6639L10.9074 20.7928L12.1543 22.0398L13.4012 20.7928L13.9604 20.6639C15.2288 20.3715 16.3726 19.7821 17.3219 18.9773C16.0508 17.676 14.2768 16.8682 12.314 16.8682C10.2781 16.8682 8.44513 17.7374 7.16603 19.1249ZM5.76992 17.6896C7.41074 15.9523 9.73576 14.8682 12.314 14.8682C14.7983 14.8682 17.0474 15.8747 18.6759 17.5022C19.6106 16.1867 20.1543 14.5823 20.1543 12.8682C20.1543 8.44988 16.5726 4.86816 12.1543 4.86816C7.73602 4.86816 4.1543 8.44988 4.1543 12.8682C4.1543 14.6646 4.75138 16.3404 5.76992 17.6896ZM12.1543 13.8682C9.94516 13.8682 8.1543 12.0773 8.1543 9.86816C8.1543 7.65902 9.94516 5.86816 12.1543 5.86816C14.3634 5.86816 16.1543 7.65902 16.1543 9.86816C16.1543 12.0773 14.3634 13.8682 12.1543 13.8682ZM12.1543 11.8682C13.2589 11.8682 14.1543 10.9728 14.1543 9.86816C14.1543 8.76359 13.2589 7.86816 12.1543 7.86816C11.0497 7.86816 10.1543 8.76359 10.1543 9.86816C10.1543 10.9728 11.0497 11.8682 12.1543 11.8682Z" fill="#5EB791"/>
</g>
<defs>
<clipPath id="clip0_647_3966">
<rect width="24" height="24" fill="white" transform="translate(0.154297 0.868164)"/>
</clipPath>
</defs>
</svg>
