<svg width="25" height="24" viewBox="0 0 25 24" fill="none" xmlns="http://www.w3.org/2000/svg">
<g id="Frame">
<path id="Vector" d="M13.5 21V23H11.5V21H3.5C2.94772 21 2.5 20.5523 2.5 20V4C2.5 3.44772 2.94772 3 3.5 3H9.5C10.6947 3 11.7671 3.52375 12.5 4.35418C13.2329 3.52375 14.3053 3 15.5 3H21.5C22.0523 3 22.5 3.44772 22.5 4V20C22.5 20.5523 22.0523 21 21.5 21H13.5ZM20.5 19V5H15.5C14.3954 5 13.5 5.89543 13.5 7V19H20.5ZM11.5 19V7C11.5 5.89543 10.6046 5 9.5 5H4.5V19H11.5Z" fill="white"/>
</g>
</svg>
