<svg width="24" height="24" viewBox="0 0 24 24" fill="none" xmlns="http://www.w3.org/2000/svg">
<path fill-rule="evenodd" clip-rule="evenodd" d="M19 21C16 18 9 17 9 17V22H7L6 17H5C3.89543 17 3 16.1046 3 15V9C3 7.89543 3.89543 7 5 7H9C9 7 16 6 19 3H20C20.4816 3 20.8837 3.34046 20.9787 3.79382C20.7399 4.12557 19.6029 5.0874 19 5.5781V5.57458C17.25 6.77262 15.1175 7.55014 13.4393 8.04373C12.5275 8.31193 11.6833 8.5146 11 8.6612V15.3388C11.6833 15.4854 12.5275 15.6881 13.4393 15.9563C15.1175 16.4499 17.25 17.2274 19 18.4254V18.3979C19.0054 18.4085 19.011 18.4162 19.0167 18.4208C19.2966 18.6489 20.4043 19.5445 20.9997 20.0256C20.9861 20.5661 20.5437 21 20 21H19ZM9 9H5V15H9V9Z" fill="#FFCC6A"/>
<rect x="17.5098" y="8.65625" width="6" height="2" fill="#FFCC6A"/>
<rect x="15.5703" y="13" width="7.93945" height="2" fill="#FFCC6A"/>
</svg>
