<svg width="24" height="24" viewBox="0 0 24 24" fill="none" xmlns="http://www.w3.org/2000/svg">
<path fill-rule="evenodd" clip-rule="evenodd" d="M3.9934 2C3.44495 2 3 2.44405 3 2.9918V21.0082C3 21.5447 3.44476 22 3.9934 22H20.0066C20.5551 22 21 21.556 21 21.0082V2.9918C21 2.45531 20.5552 2 20.0066 2H19V4V8V11H5V8V4V2H3.9934ZM5 13H19V20H5V13ZM15 15H9V17H15V15Z" fill="#FFCC6A"/>
<rect x="9" y="8" width="6" height="2" transform="rotate(-90 9 8)" fill="#FFCC6A"/>
<rect x="13.3438" y="9.93945" width="7.93945" height="2" transform="rotate(-90 13.3438 9.93945)" fill="#FFCC6A"/>
</svg>
