<svg width="25" height="25" viewBox="0 0 25 25" fill="none" xmlns="http://www.w3.org/2000/svg">
<g clip-path="url(#clip0_647_3990)">
<path d="M22.1543 20.5143C22.1525 20.7769 22.0474 21.0283 21.8618 21.2141C21.6762 21.3999 21.4249 21.5052 21.1623 21.5073H3.1463C2.88311 21.5071 2.63079 21.4023 2.44479 21.2161C2.25878 21.0299 2.1543 20.7775 2.1543 20.5143V19.5073H20.1543V7.80732L12.1543 15.0073L2.1543 6.00732V4.50732C2.1543 4.24211 2.25965 3.98775 2.44719 3.80022C2.63473 3.61268 2.88908 3.50732 3.1543 3.50732H21.1543C21.4195 3.50732 21.6739 3.61268 21.8614 3.80022C22.0489 3.98775 22.1543 4.24211 22.1543 4.50732V20.5143ZM4.5883 5.50732L12.1543 12.3173L19.7203 5.50732H4.5883ZM0.154297 15.5073H8.1543V17.5073H0.154297V15.5073ZM0.154297 10.5073H5.1543V12.5073H0.154297V10.5073Z" fill="#3C64F7"/>
</g>
<defs>
<clipPath id="clip0_647_3990">
<rect width="24" height="24" fill="white" transform="translate(0.154297 0.507324)"/>
</clipPath>
</defs>
</svg>
