<svg width="17" height="19" viewBox="0 0 17 19" fill="none" xmlns="http://www.w3.org/2000/svg">
<g clip-path="url(#clip0_661_3348)">
<path d="M16.7532 0L15.227 17.098L8.36636 19L1.52465 17.1007L0 0H16.7532Z" fill="#264DE4"/>
<path d="M13.9197 16.0095L15.224 1.39844H8.37598V17.5464L13.9197 16.0095Z" fill="#2965F1"/>
<path d="M3.49512 7.74023L3.68309 9.83754H8.37652V7.74023H3.49512Z" fill="#EBEBEB"/>
<path d="M8.3763 3.49609H8.36904H3.11719L3.30784 5.59345H8.3763V3.49609Z" fill="#EBEBEB"/>
<path d="M8.37706 15.3698V13.1877L8.36786 13.1902L6.03205 12.5594L5.88273 10.8867H4.74771H3.77734L4.07118 14.1798L8.3674 15.3725L8.37706 15.3698Z" fill="#EBEBEB"/>
<path d="M10.9518 9.83845L10.7083 12.5585L8.36914 13.1899V15.3719L12.6688 14.1803L12.7003 13.8259L13.1932 8.30434L13.2444 7.74114L13.623 3.49609H8.36914V5.59345H11.3245L11.1337 7.74114H8.36914V9.83845H10.9518Z" fill="white"/>
</g>
<defs>
<clipPath id="clip0_661_3348">
<rect width="16.7532" height="19" fill="white"/>
</clipPath>
</defs>
</svg>
