<svg width="25" height="25" viewBox="0 0 25 25" fill="none" xmlns="http://www.w3.org/2000/svg">
<g id="Frame" clip-path="url(#clip0_647_3982)">
<path id="Vector" d="M4.1543 12.0403L0.154297 9.70703L12.1543 2.70703L24.1543 9.70703V18.207H22.1543V10.8737L20.1543 12.0403V18.7183L19.9317 18.9934C18.1 21.2569 15.2961 22.707 12.1543 22.707C9.01247 22.707 6.20859 21.2569 4.37693 18.9934L4.1543 18.7183V12.0403ZM6.1543 13.207V17.9987C7.62151 19.661 9.76542 20.707 12.1543 20.707C14.5432 20.707 16.6871 19.661 18.1543 17.9987V13.207L12.1543 16.707L6.1543 13.207ZM4.12357 9.70703L12.1543 14.3916L20.185 9.70703L12.1543 5.02244L4.12357 9.70703Z" fill="#3C64F7"/>
</g>
<defs>
<clipPath id="clip0_647_3982">
<rect width="24" height="24" fill="white" transform="translate(0.154297 0.707031)"/>
</clipPath>
</defs>
</svg>
