<svg width="25" height="25" viewBox="0 0 25 25" fill="none" xmlns="http://www.w3.org/2000/svg">
<path d="M4.19336 15.707V9.20703C4.19336 6.72175 6.20808 4.70703 8.69336 4.70703C11.1787 4.70703 13.1934 6.72175 13.1934 9.20703V16.207C13.1934 17.5877 14.3127 18.707 15.6934 18.707C17.0741 18.707 18.1934 17.5877 18.1934 16.207V9.53632C17.0282 9.12449 16.1934 8.01325 16.1934 6.70703C16.1934 5.05018 17.5365 3.70703 19.1934 3.70703C20.8503 3.70703 22.1934 5.05018 22.1934 6.70703C22.1934 8.01325 21.3586 9.12449 20.1934 9.53632V16.207C20.1934 18.6923 18.1787 20.707 15.6934 20.707C13.2081 20.707 11.1934 18.6923 11.1934 16.207V9.20703C11.1934 7.82632 10.0741 6.70703 8.69336 6.70703C7.31265 6.70703 6.19336 7.82632 6.19336 9.20703V15.707H9.19336L5.19336 20.707L1.19336 15.707H4.19336ZM19.1934 7.70703C19.7457 7.70703 20.1934 7.25931 20.1934 6.70703C20.1934 6.15475 19.7457 5.70703 19.1934 5.70703C18.6411 5.70703 18.1934 6.15475 18.1934 6.70703C18.1934 7.25931 18.6411 7.70703 19.1934 7.70703Z" fill="#FFCC6A"/>
</svg>
