<svg width="12" height="19" viewBox="0 0 12 19" fill="none" xmlns="http://www.w3.org/2000/svg">
<g id="Figma svg" clip-path="url(#clip0_647_3349)">
<path id="Vector" d="M6 9.49966C6 7.7686 7.32946 6.36523 8.96946 6.36523C10.6094 6.36523 11.9389 7.7686 11.9389 9.49966C11.9389 11.2308 10.6094 12.6341 8.96946 12.6341C7.32946 12.6341 6 11.2308 6 9.49966Z" fill="#1ABCFE"/>
<path id="Vector_2" d="M0.0615234 15.7692C0.0615234 14.0381 1.39099 12.6348 3.03098 12.6348H6.00044V15.7692C6.00044 17.5003 4.67098 18.9036 3.03098 18.9036C1.39099 18.9036 0.0615234 17.5003 0.0615234 15.7692Z" fill="#0ACF83"/>
<path id="Vector_3" d="M6 0.0966797V6.36552H8.96946C10.6095 6.36552 11.9389 4.9622 11.9389 3.23111C11.9389 1.50001 10.6095 0.0966797 8.96946 0.0966797H6Z" fill="#FF7262"/>
<path id="Vector_4" d="M0.0615234 3.23111C0.0615234 4.9622 1.39099 6.36552 3.03098 6.36552H6.00044V0.0966797H3.03098C1.39099 0.0966797 0.0615234 1.50001 0.0615234 3.23111Z" fill="#F24E1E"/>
<path id="Vector_5" d="M0.0615234 9.49966C0.0615234 11.2308 1.39099 12.6341 3.03098 12.6341H6.00044V6.36523H3.03098C1.39099 6.36523 0.0615234 7.7686 0.0615234 9.49966Z" fill="#A259FF"/>
</g>
<defs>
<clipPath id="clip0_647_3349">
<rect width="12" height="19" fill="white"/>
</clipPath>
</defs>
</svg>
