<svg width="22" height="21" viewBox="0 0 22 21" fill="none" xmlns="http://www.w3.org/2000/svg">
<path d="M7.00977 0.357422C7.40039 0.357422 7.77148 0.432292 8.12305 0.582031C8.47461 0.72526 8.78711 0.933594 9.06055 1.20703L10.7988 2.93555C10.9551 3.0918 11.1406 3.16992 11.3555 3.16992H19.0605C19.36 3.16992 19.6432 3.22852 19.9102 3.3457C20.1771 3.45638 20.4115 3.61263 20.6133 3.81445C20.8151 4.01628 20.9714 4.25065 21.082 4.51758C21.1992 4.78451 21.2578 5.06771 21.2578 5.36719V17.8477C21.2578 18.1536 21.1992 18.4368 21.082 18.6973C20.9714 18.9642 20.8151 19.1986 20.6133 19.4004C20.4115 19.6022 20.1771 19.7585 19.9102 19.8691C19.6432 19.9863 19.36 20.0449 19.0605 20.0449H2.39062C2.08464 20.0449 1.79818 19.9863 1.53125 19.8691C1.27083 19.7585 1.03971 19.6022 0.837891 19.4004C0.642578 19.1986 0.486328 18.9642 0.369141 18.6973C0.258464 18.4368 0.203125 18.1536 0.203125 17.8477V2.54492C0.203125 2.24544 0.258464 1.96224 0.369141 1.69531C0.486328 1.42839 0.642578 1.19727 0.837891 1.00195C1.03971 0.80013 1.27083 0.64388 1.53125 0.533203C1.79818 0.416016 2.08464 0.357422 2.39062 0.357422H7.00977ZM19.8516 5.36719C19.8516 5.14583 19.7734 4.96029 19.6172 4.81055C19.4674 4.6543 19.2819 4.57617 19.0605 4.57617H11.3555C11.0625 4.57617 10.7826 4.52083 10.5156 4.41016C10.2487 4.29948 10.0111 4.13997 9.80273 3.93164L8.06445 2.19336C7.92773 2.05664 7.76497 1.94922 7.57617 1.87109C7.39388 1.79297 7.20508 1.75391 7.00977 1.75391H2.39062C2.17578 1.75391 1.99023 1.83203 1.83398 1.98828C1.68424 2.14453 1.60938 2.33008 1.60938 2.54492V6.11914C1.85026 6.02148 2.11068 5.97266 2.39062 5.97266H19.0605C19.334 5.97266 19.5977 6.02148 19.8516 6.11914V5.36719ZM1.60938 17.8477C1.60938 18.0625 1.68424 18.248 1.83398 18.4043C1.99023 18.5605 2.17578 18.6387 2.39062 18.6387H19.0605C19.2819 18.6387 19.4674 18.5605 19.6172 18.4043C19.7734 18.2546 19.8516 18.069 19.8516 17.8477V8.16016C19.8516 7.94531 19.7734 7.75977 19.6172 7.60352C19.4609 7.44727 19.2754 7.36914 19.0605 7.36914H2.39062C2.17578 7.36914 1.99023 7.44727 1.83398 7.60352C1.68424 7.75977 1.60938 7.94531 1.60938 8.16016V17.8477Z" fill="white"/>
</svg>
