<svg width="28" height="28" viewBox="0 0 28 28" fill="none" xmlns="http://www.w3.org/2000/svg">
<g opacity="0.7" clip-path="url(#clip0_647_3962)">
<path d="M13.6543 0.966797C6.20005 0.966797 0.154297 7.01142 0.154297 14.4668C0.154297 20.4315 4.02205 25.4918 9.38717 27.2772C10.061 27.402 10.2793 26.9835 10.2793 26.628V24.1148C6.52405 24.9315 5.74217 22.5218 5.74217 22.5218C5.12792 20.9614 4.24255 20.5463 4.24255 20.5463C3.01742 19.7082 4.33592 19.7262 4.33592 19.7262C5.69155 19.8207 6.4048 21.1178 6.4048 21.1178C7.60855 23.181 9.56267 22.5848 10.3333 22.2394C10.4537 21.3675 10.8035 20.7713 11.1905 20.4349C8.19242 20.0918 5.04017 18.9342 5.04017 13.7625C5.04017 12.2877 5.5678 11.0839 6.43067 10.1389C6.29117 9.79805 5.8288 8.42442 6.5623 6.56592C6.5623 6.56592 7.6963 6.20367 10.2759 7.94967C11.3525 7.65042 12.5068 7.5008 13.6543 7.49517C14.8018 7.5008 15.9572 7.65042 17.036 7.94967C19.6134 6.20367 20.7452 6.56592 20.7452 6.56592C21.4798 8.42555 21.0174 9.79917 20.8779 10.1389C21.7442 11.0839 22.2673 12.2888 22.2673 13.7625C22.2673 18.9477 19.1094 20.0895 16.1034 20.4237C16.5872 20.8422 17.0293 21.6634 17.0293 22.9234V26.628C17.0293 26.9869 17.2453 27.4088 17.9304 27.276C23.291 25.4884 27.1543 20.4293 27.1543 14.4668C27.1543 7.01142 21.1097 0.966797 13.6543 0.966797Z" fill="white"/>
</g>
<defs>
<clipPath id="clip0_647_3962">
<rect width="27" height="27" fill="white" transform="translate(0.154297 0.966797)"/>
</clipPath>
</defs>
</svg>
