<svg width="17" height="19" viewBox="0 0 17 19" fill="none" xmlns="http://www.w3.org/2000/svg">
<g clip-path="url(#clip0_663_3360)">
<path d="M0.0556641 0L0.058302 0.211033C0.0597556 0.327101 0.396023 4.17004 0.805572 8.75085L1.5502 17.0796L4.89697 18.0167C6.73769 18.532 8.28172 18.9563 8.32815 18.9596C8.37458 18.9628 9.939 18.5428 11.8047 18.0262C14.7959 17.198 15.1997 17.0733 15.2211 16.9707C15.2509 16.8279 16.7157 0.303416 16.7142 0.12662L16.7132 0H8.38437H0.0556641Z" fill="white"/>
<path d="M4.9241 18.0727L1.54757 17.1289L1.50345 16.8791C1.46423 16.6571 0 0.303165 0 0.0870836C0 0.00887859 0.854921 0 8.38504 0C16.3335 0 16.77 0.00512676 16.7694 0.0984818C16.7668 0.501696 15.2512 17.0722 15.2139 17.1052C15.1669 17.1469 8.63155 18.9676 8.41318 18.9999C8.35127 19.009 6.78119 18.5918 4.9241 18.0727ZM10.5141 14.7378C11.649 14.4248 12.5939 14.1526 12.6139 14.1329C12.634 14.1131 12.7668 12.7675 12.9091 11.1425C13.0514 9.51758 13.1821 8.08045 13.1997 7.9489L13.2316 7.70973H10.7802H8.32876V8.75083V9.79192H9.65231H10.9759L10.9495 9.91854C10.935 9.98818 10.8788 10.5866 10.8244 11.2485C10.7669 11.9497 10.6986 12.4788 10.6609 12.5165C10.6253 12.5522 10.086 12.7173 9.46243 12.8835L8.32876 13.1857V14.2463C8.32876 14.9702 8.34811 15.3069 8.38972 15.3069C8.42325 15.3069 9.37923 15.0508 10.5141 14.7378ZM13.1994 6.40133C13.1622 6.12558 12.8308 2.42704 12.8308 2.28758C12.8308 2.20288 12.636 2.19474 10.6079 2.19474H8.38504V3.28341V4.37207L9.38393 4.41057C9.93331 4.43174 10.5115 4.46397 10.6688 4.48218L10.9547 4.5153L11.0241 5.36687C11.0623 5.83523 11.1078 6.3134 11.1252 6.42947L11.1569 6.6405H12.1943H13.2316L13.1994 6.40133Z" fill="#EAEBEC"/>
<path d="M4.89698 18.0166L1.55022 17.0796L0.805585 8.75083C0.396035 4.17001 0.0597598 0.327101 0.0583062 0.211033L0.0556641 0H8.38442H16.7132L16.7143 0.12662C16.7158 0.303416 15.2509 16.8279 15.2211 16.9707C15.1997 17.0733 14.7959 17.198 11.8047 18.0263C9.93902 18.5428 8.37458 18.9628 8.32815 18.9596C8.28172 18.9563 6.73769 18.532 4.89698 18.0166ZM10.516 14.7776C11.673 14.456 12.636 14.1662 12.656 14.1338C12.6761 14.1013 12.8143 12.6869 12.9632 10.9907C13.112 9.2945 13.246 7.86238 13.2609 7.80821C13.2865 7.71517 13.0896 7.70973 9.69385 7.70973H6.09973L6.25275 6.09181C6.33692 5.20196 6.4078 4.47159 6.41028 4.46878C6.41276 4.46596 6.94026 4.44913 7.5825 4.43138C8.6356 4.40228 10.8073 4.48629 10.8799 4.55894C10.9071 4.58608 11.0856 6.33796 11.0856 6.57711C11.0856 6.69503 11.1016 6.69677 12.1761 6.69677H13.2666L13.2409 6.4576C13.2267 6.32606 13.1344 5.30677 13.0356 4.19252L12.856 2.1666L8.65058 2.15218C5.30492 2.1407 4.44505 2.1522 4.44468 2.20845C4.44439 2.24734 4.41991 2.49441 4.39019 2.75749C4.31828 3.39412 3.76984 9.54526 3.76984 9.71514V9.8482H7.34828H10.9267L10.8948 10.0592C10.8773 10.1753 10.8216 10.7641 10.7712 11.3676C10.7208 11.9712 10.6632 12.4806 10.6434 12.4997C10.591 12.55 8.48582 13.1124 8.35455 13.1111C8.2936 13.1105 7.74992 12.9749 7.14637 12.8097L6.049 12.5093L6.00875 12.0369C5.98662 11.7772 5.95295 11.4063 5.93393 11.2129L5.89935 10.8612H4.83459H3.76984L3.7722 11.0722C3.77661 11.4668 4.03252 14.1252 4.06969 14.1624C4.11267 14.2053 8.20223 15.3549 8.32815 15.3594C8.37458 15.3611 9.35913 15.0993 10.516 14.7776Z" fill="#F0BE25"/>
<path d="M4.89698 18.0166L1.55022 17.0796L0.805585 8.75083C0.396035 4.17001 0.0597598 0.327101 0.0583062 0.211033L0.0556641 0H8.38442H16.7132L16.7143 0.12662C16.7158 0.303416 15.2509 16.8279 15.2211 16.9707C15.1997 17.0733 14.7959 17.198 11.8047 18.0263C9.93902 18.5428 8.37458 18.9628 8.32815 18.9596C8.28172 18.9563 6.73769 18.532 4.89698 18.0166ZM11.1382 16.7631C12.6105 16.3568 13.8427 15.996 13.8765 15.9611C13.9291 15.9069 15.2006 1.97158 15.1954 1.50537L15.1938 1.35061H11.7891H8.38443V1.74454V2.13847H6.41479C4.87684 2.13847 4.44504 2.15388 4.44468 2.20881C4.44439 2.2475 4.41991 2.49441 4.39019 2.75749C4.31828 3.39412 3.76984 9.54526 3.76984 9.71514V9.8482H6.07713H8.38442V11.4802C8.38442 12.7488 8.36876 13.1119 8.31408 13.1111C8.27539 13.1105 7.74992 12.9749 7.14637 12.8097L6.049 12.5093L6.00875 12.0369C5.98662 11.7772 5.95295 11.4063 5.93393 11.2129L5.89935 10.8612H4.83459H3.76984L3.7722 11.0722C3.77894 11.6758 4.04006 14.1397 4.1013 14.1776C4.13853 14.2006 5.11746 14.4819 6.2767 14.8027L8.38442 15.3859V16.4438C8.38442 17.0256 8.40177 17.5017 8.42296 17.5017C8.44415 17.5017 9.66603 17.1693 11.1382 16.7631ZM6.24682 6.10694C6.32773 5.2254 6.40495 4.49416 6.41842 4.48197C6.4319 4.46978 6.87976 4.44771 7.41367 4.43294L8.38442 4.40608V6.05791V7.70973H7.24208H6.09973L6.24682 6.10694Z" fill="#E4A126"/>
</g>
<defs>
<clipPath id="clip0_663_3360">
<rect width="16.7694" height="19" fill="white"/>
</clipPath>
</defs>
</svg>
