<svg width="25" height="24" viewBox="0 0 25 24" fill="none" xmlns="http://www.w3.org/2000/svg">
<g id="linkedin-btn">
<path id="Vector" d="M18.8362 18.339H16.1707V14.1622C16.1707 13.1662 16.1505 11.8845 14.7817 11.8845C13.392 11.8845 13.1797 12.9683 13.1797 14.0887V18.339H10.5142V9.75H13.0747V10.9207H13.1092C13.467 10.2457 14.337 9.53325 15.6367 9.53325C18.3375 9.53325 18.837 11.3108 18.837 13.6245L18.8362 18.339ZM7.50373 8.57475C6.64573 8.57475 5.95648 7.88025 5.95648 7.026C5.95648 6.1725 6.64648 5.47875 7.50373 5.47875C8.35873 5.47875 9.05173 6.1725 9.05173 7.026C9.05173 7.88025 8.35798 8.57475 7.50373 8.57475ZM8.84023 18.339H6.16723V9.75H8.84023V18.339ZM20.1697 3H4.82923C4.09498 3 3.50098 3.5805 3.50098 4.29675V19.7033C3.50098 20.4202 4.09498 21 4.82923 21H20.1675C20.901 21 21.501 20.4202 21.501 19.7033V4.29675C21.501 3.5805 20.901 3 20.1675 3H20.1697Z" fill="white"/>
</g>
</svg>
