<svg width="43" height="42" viewBox="0 0 43 42" fill="none" xmlns="http://www.w3.org/2000/svg">
<g id="route" filter="url(#filter0_d_818_16068)">
<path id="Vector" d="M28.5 20.18V12C28.5 9.79 26.71 8 24.5 8C22.29 8 20.5 9.79 20.5 12V22C20.5 23.1 19.6 24 18.5 24C17.4 24 16.5 23.1 16.5 22V13.82C17.66 13.4 18.5 12.3 18.5 11C18.5 9.34 17.16 8 15.5 8C13.84 8 12.5 9.34 12.5 11C12.5 12.3 13.34 13.4 14.5 13.82V22C14.5 24.21 16.29 26 18.5 26C20.71 26 22.5 24.21 22.5 22V12C22.5 10.9 23.4 10 24.5 10C25.6 10 26.5 10.9 26.5 12V20.18C25.34 20.59 24.5 21.69 24.5 23C24.5 24.66 25.84 26 27.5 26C29.16 26 30.5 24.66 30.5 23C30.5 21.7 29.66 20.6 28.5 20.18ZM15.5 12C14.95 12 14.5 11.55 14.5 11C14.5 10.45 14.95 10 15.5 10C16.05 10 16.5 10.45 16.5 11C16.5 11.55 16.05 12 15.5 12ZM27.5 24C26.95 24 26.5 23.55 26.5 23C26.5 22.45 26.95 22 27.5 22C28.05 22 28.5 22.45 28.5 23C28.5 23.55 28.05 24 27.5 24Z" fill="white"/>
</g>
<defs>
<filter id="filter0_d_818_16068" x="-2.5" y="-3" width="48" height="48" filterUnits="userSpaceOnUse" color-interpolation-filters="sRGB">
<feFlood flood-opacity="0" result="BackgroundImageFix"/>
<feColorMatrix in="SourceAlpha" type="matrix" values="0 0 0 0 0 0 0 0 0 0 0 0 0 0 0 0 0 0 127 0" result="hardAlpha"/>
<feOffset dy="4"/>
<feGaussianBlur stdDeviation="6"/>
<feColorMatrix type="matrix" values="0 0 0 0 0.235294 0 0 0 0 0.392157 0 0 0 0 0.968627 0 0 0 1 0"/>
<feBlend mode="normal" in2="BackgroundImageFix" result="effect1_dropShadow_818_16068"/>
<feBlend mode="normal" in="SourceGraphic" in2="effect1_dropShadow_818_16068" result="shape"/>
</filter>
</defs>
</svg>
