<svg width="25" height="19" viewBox="0 0 25 19" fill="none" xmlns="http://www.w3.org/2000/svg">
<g clip-path="url(#clip0_675_3367)">
<path d="M21.5135 10.9149C20.6394 10.9199 19.8826 11.1326 19.2478 11.4493C19.0135 10.9793 18.7791 10.5686 18.7401 10.2618C18.6961 9.90559 18.6424 9.68783 18.6961 9.26236C18.7498 8.83679 18.9939 8.23315 18.9939 8.18367C18.989 8.13914 18.9402 7.92143 18.4373 7.91648C17.9344 7.91153 17.4998 8.01544 17.451 8.14903C17.4021 8.28263 17.3045 8.5894 17.241 8.90606C17.1531 9.37117 16.2351 11.0188 15.7127 11.8847C15.5418 11.5483 15.3953 11.2514 15.366 11.0138C15.3221 10.6576 15.2683 10.4399 15.3221 10.0144C15.3758 9.58883 15.6199 8.98523 15.6199 8.93575C15.615 8.89122 15.5662 8.67351 15.0633 8.66856C14.5603 8.66361 14.1258 8.76752 14.077 8.90111C14.0282 9.03471 13.9744 9.35138 13.867 9.65815C13.7644 9.96492 12.5437 12.716 12.2264 13.4334C12.0652 13.7996 11.9237 14.0915 11.8211 14.2894C11.7185 14.4873 11.8162 14.3042 11.8064 14.324C11.7185 14.4923 11.6697 14.5863 11.6697 14.5863V14.5913C11.6014 14.715 11.5281 14.8337 11.4939 14.8337C11.4695 14.8337 11.4206 14.5022 11.5036 14.047C11.6843 13.092 12.1238 11.6027 12.1189 11.5483C12.1189 11.5236 12.2019 11.2613 11.8357 11.1277C11.4792 10.9941 11.3523 11.2168 11.323 11.2168C11.2937 11.2168 11.2693 11.296 11.2693 11.296C11.2693 11.296 11.6648 9.61866 10.5124 9.61866C9.78978 9.61866 8.79368 10.4153 8.30052 11.1426C7.98802 11.3158 7.32396 11.6819 6.62083 12.0728C6.35228 12.2213 6.07396 12.3796 5.81029 12.5231L5.75662 12.4636C4.36014 10.9545 1.77713 9.88575 1.88455 7.8571C1.92362 7.11987 2.17752 5.17533 6.84554 2.82013C10.6688 0.890439 13.7303 1.41987 14.2625 2.59747C15.0193 4.27976 12.6267 7.40684 8.65218 7.8571C7.13851 8.03028 6.34256 7.43653 6.14242 7.21388C5.93245 6.98132 5.90316 6.97143 5.82503 7.01596C5.69808 7.08523 5.7762 7.29304 5.82503 7.41674C5.94222 7.72846 6.4305 8.28263 7.26058 8.55971C7.98807 8.80216 9.76546 8.93575 11.9139 8.0946C14.3211 7.14955 16.201 4.52716 15.6493 2.33523C15.0877 0.10372 11.4354 -0.628572 7.98324 0.613355C5.92752 1.35554 3.70096 2.51336 2.0994 4.03237C0.195101 5.83341 -0.107634 7.40684 0.0193196 8.05997C0.463704 10.3904 3.6326 11.9094 4.90213 13.0326C4.83866 13.0672 4.78006 13.1018 4.72635 13.1316C4.09159 13.4482 1.67459 14.7298 1.06912 16.0854C0.385531 17.6193 1.17655 18.7227 1.70389 18.8712C3.33475 19.3313 5.00467 18.505 5.90799 17.1443C6.80638 15.7837 6.69901 14.0173 6.28397 13.2108L6.26927 13.1811L6.76732 12.8842C7.08963 12.6912 7.40702 12.5131 7.68529 12.3597C7.52909 12.7901 7.41673 13.2998 7.35819 14.042C7.28983 14.9128 7.64139 16.0409 8.10526 16.4862C8.31034 16.6791 8.55448 16.6841 8.70584 16.6841C9.24295 16.6841 9.48709 16.2338 9.75565 15.6946C10.0877 15.0365 10.3806 14.2745 10.3806 14.2745C10.3806 14.2745 10.0144 16.3378 11.0154 16.3378C11.3816 16.3378 11.7478 15.8578 11.9139 15.6104V15.6154C11.9139 15.6154 11.9236 15.6005 11.9431 15.5659C11.9636 15.5352 11.9832 15.5039 12.0017 15.4719V15.4621C12.1482 15.2048 12.4754 14.616 12.9637 13.6412C13.5935 12.3844 14.199 10.811 14.199 10.811C14.199 10.811 14.2576 11.1969 14.4383 11.8303C14.5456 12.2064 14.78 12.617 14.9607 13.0178C14.8142 13.2256 14.7263 13.3444 14.7263 13.3444L14.7312 13.3493C14.614 13.5077 14.4822 13.676 14.3455 13.8441C13.8474 14.4478 13.2517 15.1356 13.1736 15.3335C13.0808 15.566 13.1004 15.7392 13.281 15.8778C13.4129 15.9767 13.6473 15.9965 13.8963 15.9767C14.3455 15.947 14.658 15.8332 14.8142 15.7639C15.0584 15.6749 15.3367 15.5413 15.6053 15.3434C16.0935 14.9773 16.3914 14.4577 16.3621 13.765C16.3474 13.384 16.2254 13.008 16.074 12.6517C16.118 12.5874 16.1619 12.523 16.2058 12.4538C16.9773 11.3108 17.573 10.0541 17.573 10.0541C17.573 10.0541 17.6316 10.44 17.8123 11.0733C17.905 11.395 18.0906 11.7463 18.2566 12.0927C17.534 12.6914 17.0799 13.3841 16.9236 13.8393C16.6355 14.6804 16.8601 15.0614 17.2849 15.1505C17.4753 15.1901 17.7488 15.101 17.9538 15.0119C18.2077 14.9278 18.5154 14.7843 18.7986 14.5716C19.2869 14.2054 19.7556 13.6958 19.7312 13.008C19.7166 12.6914 19.6336 12.3796 19.5213 12.0828C20.1365 11.8255 20.9324 11.677 21.9431 11.8007C24.116 12.058 24.5457 13.4336 24.4627 14.0075C24.3797 14.5815 23.9256 14.8981 23.7742 14.9971C23.6228 15.0911 23.574 15.1258 23.5887 15.195C23.6082 15.299 23.6765 15.294 23.8084 15.2742C23.989 15.2445 24.951 14.8042 24.99 13.7454C25.0486 12.3845 23.7742 10.9001 21.5135 10.9149ZM4.75565 16.6397C4.03787 17.4363 3.02713 17.7381 2.59744 17.4808C2.13358 17.2087 2.31419 16.036 3.19803 15.1899C3.73514 14.6753 4.43338 14.2003 4.89237 13.9084C4.99491 13.8441 5.15116 13.7501 5.3367 13.6363C5.366 13.6165 5.38553 13.6066 5.38553 13.6066C5.41971 13.5868 5.45877 13.5621 5.49784 13.5373C5.82498 14.7446 5.51248 15.8035 4.75565 16.6397ZM10.0047 13.0227C9.75565 13.6412 9.2283 15.2295 8.91092 15.1404C8.63744 15.0662 8.47147 13.8639 8.85716 12.6764C9.05247 12.0776 9.46751 11.3652 9.71165 11.088C10.1072 10.6427 10.5368 10.4943 10.6443 10.6774C10.7713 10.9149 10.1609 12.6368 10.0047 13.0227ZM14.3357 15.1206C14.2283 15.1751 14.1306 15.2147 14.0867 15.185C14.0525 15.1652 14.1306 15.091 14.1306 15.091C14.1306 15.091 14.6726 14.5022 14.8874 14.2301C15.0095 14.0718 15.156 13.8887 15.3122 13.6809V13.7402C15.3123 14.4527 14.6385 14.9277 14.3357 15.1206ZM17.6755 14.3488C17.5974 14.2894 17.6072 14.1063 17.8708 13.5324C17.9734 13.3048 18.2077 12.9238 18.613 12.5626C18.6619 12.711 18.6912 12.8545 18.6863 12.9881C18.6814 13.8787 18.0564 14.2102 17.6755 14.3488Z" fill="#CF649A"/>
</g>
<defs>
<clipPath id="clip0_675_3367">
<rect width="25" height="19" fill="white"/>
</clipPath>
</defs>
</svg>
