<svg width="25" height="25" viewBox="0 0 25 25" fill="none" xmlns="http://www.w3.org/2000/svg">
<g id="Group">
<path id="Vector" d="M22.5 20.507C22.4982 20.7696 22.3931 21.021 22.2075 21.2068C22.0219 21.3926 21.7706 21.4979 21.508 21.5H3.492C3.22881 21.4997 2.9765 21.395 2.79049 21.2088C2.60448 21.0226 2.5 20.7702 2.5 20.507V19.5H20.5V7.8L12.5 15L2.5 6V4.5C2.5 4.23478 2.60536 3.98043 2.79289 3.79289C2.98043 3.60536 3.23478 3.5 3.5 3.5H21.5C21.7652 3.5 22.0196 3.60536 22.2071 3.79289C22.3946 3.98043 22.5 4.23478 22.5 4.5V20.507ZM4.934 5.5L12.5 12.31L20.066 5.5H4.934ZM0.5 15.5H8.5V17.5H0.5V15.5ZM0.5 10.5H5.5V12.5H0.5V10.5Z" fill="white"/>
</g>
</svg>
