<svg width="25" height="25" viewBox="0 0 25 25" fill="none" xmlns="http://www.w3.org/2000/svg">
<path d="M12.1934 2.86816C15.3149 2.86816 18.1023 4.29837 19.9362 6.53924L13.6076 12.8682L19.9362 19.1971C18.1023 21.438 15.3149 22.8682 12.1934 22.8682C6.67051 22.8682 2.19336 18.391 2.19336 12.8682C2.19336 7.34531 6.67051 2.86816 12.1934 2.86816ZM12.1934 4.86816C7.77508 4.86816 4.19336 8.44988 4.19336 12.8682C4.19336 17.2865 7.77508 20.8682 12.1934 20.8682C13.9166 20.8682 15.5482 20.3213 16.8908 19.3456L17.0984 19.1882L10.7793 12.8682L17.0984 6.54716L16.8908 6.39077C15.6272 5.47247 14.1076 4.93399 12.4965 4.87381L12.1934 4.86816ZM12.1934 5.86816C13.0218 5.86816 13.6934 6.53973 13.6934 7.36816C13.6934 8.19659 13.0218 8.86816 12.1934 8.86816C11.365 8.86816 10.6934 8.19659 10.6934 7.36816C10.6934 6.53973 11.365 5.86816 12.1934 5.86816Z" fill="#BB3CF7"/>
</svg>
