<svg width="24" height="24" viewBox="0 0 24 24" fill="none" xmlns="http://www.w3.org/2000/svg">
<g clip-path="url(#clip0_89_1002)">
<path d="M18.3641 10.98C19.9261 12.541 19.9261 15.074 18.3641 16.636L12.7071 22.293C12.3171 22.683 11.6831 22.683 11.2931 22.293L5.6361 16.636C4.0741 15.074 4.0741 12.541 5.6361 10.979C7.1981 9.417 9.7311 9.417 11.2931 10.979L11.9991 11.686L12.7071 10.979C14.2691 9.417 16.8021 9.418 18.3641 10.98ZM12.0001 1C14.2101 1 16.0001 2.79 16.0001 5C16.0001 7.21 14.2101 9 12.0001 9C9.7901 9 8.0001 7.21 8.0001 5C8.0001 2.79 9.7901 1 12.0001 1Z" fill="white"/>
</g>
<defs>
<clipPath id="clip0_89_1002">
<rect width="24" height="24" fill="white"/>
</clipPath>
</defs>
</svg>
