<svg width="16" height="16" viewBox="0 0 16 16" fill="none" xmlns="http://www.w3.org/2000/svg">
<path d="M9.33398 4.33317V2.99984H6.66732V4.33317H9.33398ZM2.66732 5.6665V12.9998H13.334V5.6665H2.66732ZM13.334 4.33317C14.074 4.33317 14.6673 4.9265 14.6673 5.6665V12.9998C14.6673 13.7398 14.074 14.3332 13.334 14.3332H2.66732C1.92732 14.3332 1.33398 13.7398 1.33398 12.9998L1.34065 5.6665C1.34065 4.9265 1.92732 4.33317 2.66732 4.33317H5.33398V2.99984C5.33398 2.25984 5.92732 1.6665 6.66732 1.6665H9.33398C10.074 1.6665 10.6673 2.25984 10.6673 2.99984V4.33317H13.334Z" fill="white"/>
</svg>
