<svg width="44" height="44" viewBox="0 0 44 44" fill="none" xmlns="http://www.w3.org/2000/svg">
<g id="work_outline" filter="url(#filter0_d_694_47372)">
<path id="Vector" d="M24 12.5V10.5H20V12.5H24ZM14 14.5V25.5H30V14.5H14ZM30 12.5C31.11 12.5 32 13.39 32 14.5V25.5C32 26.61 31.11 27.5 30 27.5H14C12.89 27.5 12 26.61 12 25.5L12.01 14.5C12.01 13.39 12.89 12.5 14 12.5H18V10.5C18 9.39 18.89 8.5 20 8.5H24C25.11 8.5 26 9.39 26 10.5V12.5H30Z" fill="#2A2A2A"/>
</g>
<defs>
<filter id="filter0_d_694_47372" x="-2" y="-2" width="48" height="48" filterUnits="userSpaceOnUse" color-interpolation-filters="sRGB">
<feFlood flood-opacity="0" result="BackgroundImageFix"/>
<feColorMatrix in="SourceAlpha" type="matrix" values="0 0 0 0 0 0 0 0 0 0 0 0 0 0 0 0 0 0 127 0" result="hardAlpha"/>
<feOffset dy="4"/>
<feGaussianBlur stdDeviation="6"/>
<feColorMatrix type="matrix" values="0 0 0 0 0.235294 0 0 0 0 0.392157 0 0 0 0 0.968627 0 0 0 1 0"/>
<feBlend mode="normal" in2="BackgroundImageFix" result="effect1_dropShadow_694_47372"/>
<feBlend mode="normal" in="SourceGraphic" in2="effect1_dropShadow_694_47372" result="shape"/>
</filter>
</defs>
</svg>
